<svg width="32" height="32" viewBox="0 0 32 32" fill="none" xmlns="http://www.w3.org/2000/svg">
  <rect width="32" height="32" rx="6" fill="#6366f1"/>
  <path d="M10 11C10 10.4477 10.4477 10 11 10H17C17.5523 10 18 10.4477 18 11V12C18 12.5523 17.5523 13 17 13H13V15H16C16.5523 15 17 15.4477 17 16V17C17 17.5523 16.5523 18 16 18H13V21C13 21.5523 12.5523 22 12 22H11C10.4477 22 10 21.5523 10 21V11Z" fill="white"/>
  <path d="M19 15C19 14.4477 19.4477 14 20 14H21C21.5523 14 22 14.4477 22 15V21C22 21.5523 21.5523 22 21 22H20C19.4477 22 19 21.5523 19 21V15Z" fill="white"/>
  <circle cx="20.5" cy="11.5" r="1.5" fill="white"/>
</svg>
